# ProBuilder 5.0.7
# https://unity3d.com/unity/features/worldbuilding/probuilder
# 20.04.2024 19:17:22

mtllib ./WindGenerator_(13).mtl
o WindGenerator (13)

g WindGenerator (13)
v -157.0067 60.08944 249.1911
v -155.0003 60.08944 249.8454
v -155.9182 63.80679 249.2829
v -154.5077 63.80679 250.8527
v -155.237 60.08944 250.0515
v -157.001 60.08944 249.4669
v -154.8158 63.80679 250.9129
v -156.0512 63.80679 249.5246
v -158.2672 60.08944 252.6911
v -158.6401 60.08944 250.6139
v -158.7598 63.80679 251.6837
v -158.0442 63.80679 249.6984
v -158.3676 60.08944 250.6574
v -158.0305 60.08944 252.4849
v -157.8299 63.80679 249.8723
v -158.4517 63.80679 251.6235
v -154.6274 60.08944 251.9225
v -156.2608 60.08944 253.3454
v -155.2233 63.80679 252.838
v -157.3493 63.80679 253.2535
v -156.2665 60.08944 253.0695
v -154.8999 60.08944 251.8791
v -157.2163 63.80679 253.0118
v -155.4376 63.80679 252.6642
v -155.0214 67.52414 249.9067
v -154.5848 67.52414 251.9714
v -154.8817 67.52414 251.8695
v -155.2574 67.52414 250.0495
v -158.6827 67.52414 250.565
v -157.0703 67.52414 249.2035
v -156.9717 67.52414 249.4612
v -158.3858 67.52414 250.6669
v -156.1972 67.52414 253.3329
v -158.2462 67.52414 252.6298
v -158.0101 67.52414 252.4869
v -156.2958 67.52414 253.0752
v -154.5566 71.24149 250.8953
v -155.2109 71.24149 252.9016
v -155.4171 71.24149 252.665
v -154.8325 71.24149 250.9009
v -158.0566 71.24149 249.6348
v -155.9794 71.24149 249.2618
v -156.0229 71.24149 249.5343
v -157.8504 71.24149 249.8715
v -157.2881 71.24149 253.2746
v -158.7109 71.24149 251.6411
v -158.435 71.24149 251.6355
v -157.2446 71.24149 253.0021
v -154.6484 74.95885 251.9838
v -156.2183 74.95885 253.3942
v -156.2785 74.95885 253.0862
v -154.8902 74.95885 251.8508
v -157.0493 74.95885 249.1422
v -155.0639 74.95885 249.8578
v -155.2378 74.95885 250.0721
v -156.9891 74.95885 249.4502
v -158.2036 74.95885 252.6786
v -158.6191 74.95885 250.5526
v -158.3773 74.95885 250.6857
v -158.0297 74.95885 252.4644
v -156.3622 56.22841 250.9818
v -156.6744 56.22841 250.8799
v -156.628 56.16283 251.274
v -156.6337 59.94378 251.2682
v -156.6337 59.67184 251.2682
v -156.9909 56.22622 251.1809
v -156.9328 56.22622 251.5041
v -156.531 56.22879 251.6593
v -156.2768 56.22879 251.4379
v -156.947 59.45374 251.1734
v -156.889 59.45374 251.4965
v -156.628 59.38898 251.274
v -156.5647 59.45409 251.6055
v -156.3106 59.45409 251.3842
v -156.3723 59.45404 251.043
v -156.6844 59.45404 250.9412

vt 0.5338107 -1.543681
vt -1.046486 -1.543681
vt -0.2912581 -0.629496
vt -1.538413 -0.756806
vt 0.890402 -2.082555
vt -0.5001938 -2.082555
vt 1.312978 -1.074895
vt 0.2163199 -1.353815
vt 0.7175781 -1.36417
vt -0.6272771 -1.36417
vt 0.03176357 -0.4338824
vt -1.138065 -0.6457079
vt 0.5778648 -2.179662
vt -0.6063761 -2.179662
vt 1.009972 -1.139286
vt -0.01874254 -1.504198
vt 1.02193 -1.495029
vt -0.5963494 -1.495029
vt 0.2721146 -0.5743192
vt -1.256596 -0.7300601
vt 0.4890442 -2.083449
vt -0.864882 -2.083449
vt 1.074196 -1.080742
vt -0.2047894 -1.347896
vt 0.4319704 -0.6080427
vt -0.9984862 -0.6080427
vt -0.3217593 0.3094603
vt -1.421586 0.1546579
vt 0.8477947 -1.35606
vt -0.410705 -1.35606
vt 1.212194 -0.3259315
vt 0.2441729 -0.6590459
vt 0.9984801 -0.5408965
vt -0.4319775 -0.5408965
vt 0.3078329 0.3858066
vt -1.069957 0.1978567
vt 0.4107083 -1.350932
vt -0.8477856 -1.350932
vt 0.955537 -0.3257601
vt -0.2562205 -0.6536785
vt 0.8450757 -0.6402121
vt -0.8450649 -0.6402121
vt 0.02527564 0.2787075
vt -1.438425 0.1356475
vt 0.7070205 -1.248478
vt -0.7070263 -1.248478
vt 1.236267 -0.2539961
vt 0.01167018 -0.500935
vt 0.6272671 0.3077828
vt -0.7175859 0.3077828
vt -0.05159921 1.227695
vt -1.211105 1.053012
vt 0.606375 -0.6357599
vt -0.5778685 -0.6357599
vt 1.031532 0.4101355
vt 0.009073483 0.03960482
vt 1.04647 0.2727951
vt -0.5338203 0.2727951
vt 0.2741385 1.194549
vt -1.215866 1.039725
vt 0.5002009 -0.4707767
vt -0.8903841 -0.4707767
vt 1.082692 0.532735
vt -0.2292311 0.2583541
vt 0.5963422 0.2604275
vt -1.021923 0.2604275
vt -0.2236933 1.181135
vt -1.497907 1.025397
vt 0.864862 -0.4715281
vt -0.4890539 -0.4715281
vt 1.293209 0.5311724
vt 0.2271304 0.2640308
vt 0.9106185 1.156524
vt -0.5114011 1.156524
vt 0.2260789 2.074247
vt -1.140381 1.917638
vt 0.4312169 0.2080607
vt -0.8221699 0.2080607
vt 0.971678 1.239196
vt -0.2331951 0.9036786
vt 0.8599752 1.130213
vt -0.786508 1.130213
vt 0.01729817 2.050192
vt -1.404382 1.907288
vt 0.7184843 0.3752616
vt -0.7314497 0.3752616
vt 1.242905 1.370795
vt -0.01021351 1.116396
vt 0.4967791 1.189821
vt -0.967203 1.189821
vt -0.2521315 2.115291
vt -1.379316 1.925957
vt 0.8201427 0.2249547
vt -0.4046975 0.2249547
vt 1.191898 1.249253
vt 0.2488421 0.9297095
vt 0.6901912 1.413142
vt 1.380383 0
vt 0.5774483 1.247948
vt 1.180382 0
vt -1.380383 -1.426526E-07
vt -0.6901913 1.413142
vt -1.180382 -1.278616E-07
vt -0.5774484 1.247948
vt 0.6901911 -1.413142
vt -0.6901911 -1.413142
vt 0.5774482 -1.247948
vt -0.5774482 -1.247948
vt -0.01885072 0.1757534
vt 0.08279402 -0.04812284
vt -0.1698079 -0.07160384
vt 1.383813 -1.797925
vt 1.618271 -1.797925
vt 5.926922E-06 -1.833151
vt 6.122302E-06 -1.898912
vt 1.192493 0.7068278
vt 1.019866 0.6672428
vt -0.1558763 0.6797482
vt -0.1504755 0.6562068
vt -1.116577 -0.03711521
vt -0.5356278 1.226314
vt 0.05535557 -0.0254447
vt 0.09533141 -0.1026706
vt -0.1138843 -0.1065809
vt -0.00726361 0.1616988
vt 0.3075857 -1.321628
vt 0.3673261 -1.523996
vt -0.2846327 -0.0840172
vt -0.2948462 -0.08702987
vt -1.618259 -1.797927
vt -1.383801 -1.797927
vt 0.5908518 -1.200245
vt -0.5932894 -1.184878
vt 0.000675829 0.05189526
vt -0.08985711 -0.05875377
vt 0.01733179 0.1691017
vt 0.1634978 -0.07541016
vt 1.119291 -0.2326755
vt 1.292441 -0.2699632
vt -0.05264106 -0.2444502
vt -0.05452669 -0.2532181
vt -0.1419781 1.66044
vt -0.1971129 1.45677
vt -0.7801131 0.2111921
vt -0.7530994 0.203877
vt 0.5399006 1.210563
vt 1.117093 -0.01416782
vt -0.05483975 -0.0258384
vt 0.6501748 -1.202806
vt -0.6944392 -1.228278
vt 0.09301005 0.01946957
vt -0.1162052 0.01553458
vt -1.618253 -1.79601
vt 6.098451E-06 -1.897094
vt -0.2552617 -1.949886
vt 0.001350372 -1.965669
vt -1.06781E-05 -1.897681
vt 1.580287 -1.79663
vt -0.005000805 -1.96613
vt 0.2458588 -1.950535
vt -1.085936 -0.1517625
vt -0.4022303 1.314994
vt 0.0497283 -0.1240535
vt 0.1561074 0.1041812
vt -1.580278 -1.788691
vt -1.068662E-05 -1.890146
vt -0.2558977 -1.943049
vt -0.005021496 -1.958467
vt 5.219997E-06 -1.896297
vt 1.344855 -1.795171
vt 0.004254485 -1.964796
vt 0.2193438 -1.949179
vt 0.4440195 1.347421
vt 1.092586 -0.09365515
vt -0.1526173 0.115361
vt -0.05169887 -0.1088436
vt -1.344819 -1.789913
vt 5.119598E-06 -1.891306
vt -0.2108802 -1.944188
vt 0.004215758 -1.959761
vt 6.165792E-06 -1.893045
vt 1.618252 -1.791745
vt 0.001391708 -1.961661
vt 0.2580045 -1.945555
vt -0.09339305 -1.959836
vt 0.1158592 -1.959836
vt -0.09339614 -2.741116
vt 0.1158561 -2.741116
vt -0.2552087 -1.951182
vt 0.001421765 -1.966847
vt -0.2864879 -2.731835
vt 0.001416689 -2.746877
vt -0.004985268 -1.967318
vt 0.2458792 -1.951656
vt -0.004979993 -2.747493
vt 0.2778617 -2.732163
vt -0.09142183 -1.959443
vt 0.1603868 -1.959443
vt -0.09141489 -2.740529
vt 0.1603937 -2.740529
vt -0.2559415 -1.950518
vt -0.2882918 -2.730934
vt -0.00504667 -2.746002
vt 0.004288301 -1.967318
vt 0.2193872 -1.951572
vt 0.004288124 -2.747493
vt 0.2570468 -2.731541
vt -0.1678234 -1.959152
vt 0.0780469 -1.959152
vt -0.1678246 -2.740267
vt 0.07804574 -2.740267
vt -0.2109067 -1.951257
vt 0.004191818 -1.966994
vt -0.2485356 -2.731465
vt 0.001278512 -1.967318
vt 0.2579474 -1.951584
vt 0.001273505 -2.747493
vt 0.2894637 -2.731634

vn 0.2428151 -0.7514439 -1.47866
vn 0.5578862 0.1336688 -1.350608
vn 0.7032459 -0.365671 -1.232978
vn 0.963954 0.592316 -0.9236907
vn -0.2250798 -1.868173 1.339919
vn -0.5630122 0.06986181 1.347826
vn -0.6842627 -1.101964 1.189743
vn -0.9392914 1.150892 0.8908674
vn -1.220786 -1.064016 0.2095518
vn -1.287234 -0.1276219 -0.262677
vn -1.240792 -0.5923092 -0.4927933
vn -1.115713 0.3656794 -0.8774806
vn 1.090194 -2.081476 -0.1951449
vn 1.288502 -0.03759369 0.253392
vn 1.205584 -1.150887 0.47168
vn 1.081845 1.101966 0.8445806
vn 0.7896467 -0.8934124 1.257777
vn 0.568363 -0.01901041 1.449318
vn 0.4330005 -0.4530422 1.495366
vn 0.1618637 0.4530688 1.548356
vn -0.7250712 -1.83175 -1.154921
vn -0.5675254 -0.03608379 -1.449685
vn -0.4224212 -0.9866394 -1.461181
vn -0.1587819 0.9866445 -1.512705
vn 1.183648 -0.4013273 -0.4992445
vn 1.273026 0.5975735 -0.0409458
vn -1.140815 -1.195634 0.4733213
vn -1.235663 1.161515 0.02843773
vn -0.9080552 -0.5414474 -1.172297
vn -0.6770461 0.338881 -1.381336
vn 0.8884831 -1.056011 1.140014
vn 0.6624393 1.02146 1.34033
vn -0.1242225 -0.4534916 1.527009
vn -0.4183328 0.4896013 1.421333
vn 0.1206942 -0.9905971 -1.491677
vn 0.4054082 1.059234 -1.384571
vn 1.258109 -0.4044063 0.4432645
vn 1.130374 0.5496745 0.8312649
vn -1.20879 -1.18954 -0.4370137
vn -1.097379 1.0712 -0.8190208
vn -0.4166208 -0.503347 -1.498421
vn -0.1455662 0.3410722 -1.553302
vn 0.4121618 -0.9843794 1.464801
vn 0.1476707 1.018852 1.510273
vn -0.7182741 -0.490893 1.213728
vn -0.9805056 0.5349013 0.9035397
vn 0.6971003 -1.070355 -1.182187
vn 0.948599 1.153155 -0.876546
vn 1.051077 0.04562109 1.00306
vn 0.8019849 0.9180217 1.244184
vn -1.044081 -0.1069896 -1.013309
vn -0.7325171 1.842669 -1.145745
vn -0.000976283 -0.06471594 -1.554982
vn 0.2768365 0.7550027 -1.46673
vn 0.008990323 0.05509077 1.555737
vn -0.2462258 1.873124 1.331697
vn -1.107261 0.03017278 0.7014766
vn -1.217588 1.038335 0.2379633
vn 1.106062 0.0545148 -0.7037887
vn 1.088474 2.072637 -0.2127294
vn 0 4.135154 0
vn 0.01634036 -4.126094 -0.09947997
vn 0.8087747 -0.005364164 1.288177
vn 0.8087602 -0.00257994 1.28819
vn 0.8087458 0.0002042833 1.288204
vn -0.4748608 -3.846193 -0.02968736
vn -0.8648446 -1.923145 0.1157406
vn -1.254828 -9.670562E-05 0.2611685
vn -0.008384972 4.132869 0.04991642
vn -0.07273864 -4.128294 0.01249828
vn 0.01167851 -4.080605 -0.2502869
vn 0.1293028 -2.040364 -0.8769917
vn 0.2469271 -0.0001233989 -1.503697
vn 0.8087753 0.002004106 1.288178
vn 0.8087593 0.001104195 1.288192
vn 0.03571518 4.133497 -0.006393023
vn 0.05458261 -4.125725 0.08694661
vn -0.1763804 4.0965 -0.01103697
vn -0.7198531 2.048199 0.1029017
vn -1.263326 -0.0001019845 0.2168404
vn 0.03070234 3.741928 -0.6579962
vn 0.1520575 1.870904 -1.076355
vn 0.2734126 -0.0001199604 -1.494713
vn -0.02674754 4.132892 -0.04260449
vn -0.1575592 -4.102867 0.02704553
vn 0.810724 0.1810192 1.284563
vn 0.806218 0.2529589 1.286357
vn 0.801712 0.3248986 1.288151
vn 0.2438467 -0.1489255 -1.503669
vn 0.2281846 -0.5332726 -1.489343
vn 0.2125224 -0.9176196 -1.475018
vn 0.1221083 -4.087749 0.1944983
vn 0.1221079 -4.087748 0.194504
vn 0.253569 -0.3969071 -1.494186
vn 0.2621478 -0.2697067 -1.494449
vn 0.2707266 -0.1425064 -1.494711
vn -1.260483 -0.2170078 0.2226235
vn -1.229784 -0.7068238 0.2412729
vn -1.199086 -1.19664 0.2599223
vn 0.03614483 -4.090612 -0.2201096
vn -1.260095 -0.3698058 0.2056077
vn -1.262899 -0.2959021 0.1989239
vn -1.265704 -0.2219984 0.1922401
vn 0.801291 0.324864 1.288515
vn 0.8050787 -0.4153691 1.248063
vn 0.8088663 -1.155602 1.207611
vn -1.262038 0.1837584 0.216849
vn 0.7979692 -0.07980727 1.297111
vn 0.771462 -0.03990972 1.318544
vn 0.7449548 -1.21624E-05 1.339978
vn 0.2360486 -1.122533E-05 -1.507186
vn 0.2050434 -0.03163457 -1.515942
vn 0.1740381 -0.06325792 -1.524699
vn 0.807559 0.2210103 1.28639
vn 0.2706808 -0.1398111 -1.494763
vn 0.3276736 -0.06991277 -1.471993
vn 0.3846664 -1.445062E-05 -1.449224
vn -1.259503 3.011435E-05 0.2374851
vn -1.247094 -0.0403838 0.2928963
vn -1.234686 -0.08079772 0.3483075
vn 0.2466538 0.2158214 -1.501626
vn -1.266638 -0.08314179 0.1962873
vn -1.273507 -0.04155585 0.149145
vn -1.280377 3.008143E-05 0.1020027
vn 0.8247866 -1.426557E-05 1.273976
vn 0.8681952 -0.0606417 1.230158
vn 0.9116038 -0.1212691 1.18634

usemtl WhiteBox_3
f 63/111/62 62/110/62 61/109/62
f 64/122/69 5/121/69 6/120/69
f 63/125/70 67/124/70 66/123/70
f 64/134/76 13/133/76 14/132/76
f 63/137/77 69/136/77 68/135/77
f 64/148/84 21/147/84 22/146/84
f 4/4/4 2/2/2 1/1/1
f 1/1/1 3/3/3 4/4/4
f 8/8/8 6/6/6 5/5/5
f 5/5/5 7/7/7 8/8/8
f 12/12/12 10/10/10 9/9/9
f 9/9/9 11/11/11 12/12/12
f 16/16/16 14/14/14 13/13/13
f 13/13/13 15/15/15 16/16/16
f 20/20/20 18/18/18 17/17/17
f 17/17/17 19/19/19 20/20/20
f 24/24/24 22/22/22 21/21/21
f 21/21/21 23/23/23 24/24/24
f 26/28/26 4/26/4 3/25/3
f 3/25/3 25/27/25 26/28/26
f 28/32/28 8/30/8 7/29/7
f 7/29/7 27/31/27 28/32/28
f 30/36/30 12/34/12 11/33/11
f 11/33/11 29/35/29 30/36/30
f 32/40/32 16/38/16 15/37/15
f 15/37/15 31/39/31 32/40/32
f 34/44/34 20/42/20 19/41/19
f 19/41/19 33/43/33 34/44/34
f 36/48/36 24/46/24 23/45/23
f 23/45/23 35/47/35 36/48/36
f 38/52/38 26/50/26 25/49/25
f 25/49/25 37/51/37 38/52/38
f 40/56/40 28/54/28 27/53/27
f 27/53/27 39/55/39 40/56/40
f 42/60/42 30/58/30 29/57/29
f 29/57/29 41/59/41 42/60/42
f 44/64/44 32/62/32 31/61/31
f 31/61/31 43/63/43 44/64/44
f 46/68/46 34/66/34 33/65/33
f 33/65/33 45/67/45 46/68/46
f 48/72/48 36/70/36 35/69/35
f 35/69/35 47/71/47 48/72/48
f 50/76/50 38/74/38 37/73/37
f 37/73/37 49/75/49 50/76/50
f 52/80/52 40/78/40 39/77/39
f 39/77/39 51/79/51 52/80/52
f 54/84/54 42/82/42 41/81/41
f 41/81/41 53/83/53 54/84/54
f 56/88/56 44/86/44 43/85/43
f 43/85/43 55/87/55 56/88/56
f 58/92/58 46/90/46 45/89/45
f 45/89/45 57/91/57 58/92/58
f 60/96/60 48/94/48 47/93/47
f 47/93/47 59/95/59 60/96/60
f 51/100/61 50/98/61 49/97/61
f 49/97/61 52/99/61 51/100/61
f 55/104/61 54/102/61 53/101/61
f 53/101/61 56/103/61 55/104/61
f 59/108/61 58/106/61 57/105/61
f 57/105/61 60/107/61 59/108/61
f 65/115/65 2/113/64 5/112/63
f 5/112/63 64/114/64 65/115/65
f 64/119/68 6/117/67 1/116/66
f 1/116/66 65/118/67 64/119/68
f 65/129/73 10/127/72 13/126/71
f 13/126/71 64/128/72 65/129/73
f 64/114/65 14/131/75 9/130/74
f 9/130/74 65/115/75 64/114/65
f 65/141/80 18/139/79 21/138/78
f 21/138/78 64/140/79 65/141/80
f 64/145/83 22/143/82 17/142/81
f 17/142/81 65/144/82 64/145/83
f 71/152/85 9/150/85 10/149/85
f 10/149/85 70/151/85 71/152/85
f 72/156/88 65/154/87 9/153/86
f 9/153/86 71/155/87 72/156/88
f 70/160/91 10/158/90 65/157/89
f 65/157/89 72/159/90 70/160/91
f 74/164/93 17/162/93 18/161/92
f 18/161/92 73/163/93 74/164/93
f 72/168/96 65/166/95 17/165/94
f 17/165/94 74/167/95 72/168/96
f 73/172/99 18/170/98 65/169/97
f 65/169/97 72/171/98 73/172/99
f 76/176/100 1/174/100 2/173/100
f 2/173/100 75/175/100 76/176/100
f 72/180/103 65/178/102 1/177/101
f 1/177/101 76/179/102 72/180/103
f 75/184/106 2/182/105 65/181/104
f 65/181/104 72/183/105 75/184/106
f 67/188/107 71/186/107 70/185/107
f 70/185/107 66/187/107 67/188/107
f 63/192/110 72/190/109 71/189/108
f 71/189/108 67/191/109 63/192/110
f 66/196/113 70/194/112 72/193/111
f 72/193/111 63/195/112 66/196/113
f 69/200/114 74/198/114 73/197/114
f 73/197/114 68/199/114 69/200/114
f 63/203/117 72/159/116 74/201/115
f 74/201/115 69/202/116 63/203/117
f 68/207/120 73/205/119 72/204/118
f 72/204/118 63/206/119 68/207/120
f 62/211/121 76/209/121 75/208/121
f 75/208/121 61/210/121 62/211/121
f 63/206/124 72/213/123 76/212/122
f 76/212/122 62/214/123 63/206/124
f 61/218/127 75/216/126 72/215/125
f 72/215/125 63/217/126 61/218/127

